<svg xmlns="http://www.w3.org/2000/svg" version="1.0" viewBox="0 0 150 89"><path d="M88 1.1c-1.9.6-1.4.7 1.7.3l4.2-.6.4 4.4.4 4.3.1-4.8c.2-4.3 0-4.7-2-4.6-1.3.1-3.4.5-4.8 1zM107 4c0 1.1.4 2 .9 2s.7-.9.4-2c-.3-1.1-.7-2-.9-2-.2 0-.4.9-.4 2zm-5.3.5c-1.5 1.1-1.7 1.7-.7 3.2.7 1.1.9 1.2.7.3-.2-.8.2-2.3 1.1-3.3 1.8-2 1.4-2.2-1.1-.2zM110 7c-2.3.8-2.3.8.7.7 1.7-.1 2.9-.5 2.7-.9-.3-.4-.6-.8-.7-.7-.1.1-1.3.5-2.7.9zM87.1 9c0 .8.4 2.2.9 3 1.2 1.8 1.2.2 0-2.5-.6-1.3-.9-1.5-.9-.5zm9.4 1.1c-.4.6-.4 1.3-.1 1.6.3.4.6.1.6-.5s.8-1.3 1.8-1.5c1.5-.4 1.5-.5 0-.6-.9 0-2 .4-2.3 1zM74 13c-1.1.8-.7.9 1.5.4 3.7-.8 4.5-1.4 1.9-1.4-1 0-2.6.5-3.4 1zm35.1 1.2c.1 1.6.3 1.8.6.6.2-.9 1.2-1.9 2.1-2.1 1.2-.3 1-.5-.5-.6-1.8-.1-2.3.4-2.2 2.1zm-27.3.3c1.2.9 2.6 3 3.2 4.8l1 3.2-.5-3.4c-.5-3.2-2.8-6-5-6.1-.5 0 0 .7 1.3 1.5zm15.9-.4c.7.7 1.5 1 1.8.7.3-.3-.2-.9-1.2-1.2-1.4-.6-1.5-.5-.6.5zm-83.4.6c1.5.2 3.7.2 5 0 1.2-.2 0-.4-2.8-.4-2.7 0-3.8.2-2.2.4zm55.3.2c-1.2.5-1.5 1-.9 1.4.6.4 1.6 0 2.3-.8 1.4-1.7 1.3-1.7-1.4-.6zm20.7-.2c.9.2 2.3.2 3 0 .6-.3-.1-.5-1.8-.5-1.6 0-2.2.2-1.2.5zm11.8.9c0 1.1.3 1.4.6.6.3-.7.2-1.6-.1-1.9-.3-.4-.6.2-.5 1.3zm-95.3.1c.6.2 1.8.2 2.5 0 .6-.3.1-.5-1.3-.5-1.4 0-1.9.2-1.2.5zm56.5 0c.9.2 2.3.2 3 0 .6-.3-.1-.5-1.8-.5-1.6 0-2.2.2-1.2.5zm-63.2 3c0 1.6.5 3.7 1 4.8.6 1.4.7.8.3-2.2-.5-3.4-.2-4.2 1.3-4.6 1.4-.4 1.4-.5-.4-.6C.4 16 0 16.5.1 18.7zm26.9-.2c4 4.8 4.3 5.1 3.2 3-.6-1.1-2.1-2.9-3.4-4-2.2-1.9-2.2-1.9.2 1zm14.4 1.1c-1.9 1.5-1.9 1.5.1.6 1.1-.5 2.7-1.2 3.5-1.5 1.3-.5 1.3-.6-.1-.6-.8-.1-2.4.6-3.5 1.5zm20.7 1c.1 1.6.5 4 .9 5.4.6 1.7.7.9.3-2.5-.6-5.6-1.4-7.4-1.2-2.9zm9.4-1.6c-.5.7.2.9 2 .4 1.8-.4 3-.2 3.7.7.8 1.2.9 1.1.5-.1-.4-1.8-5.2-2.6-6.2-1zm38.7 1c0 1.4.2 1.9.5 1.2.2-.6.2-1.8 0-2.5-.3-.6-.5-.1-.5 1.3zm-55 .3c1 .8 2.4 2.7 3.3 4.3 1.3 2.5 1.5 2.6 1.5.8 0-2-2-4.4-5-5.8-.9-.5-.9-.2.2.7zm-45.1.6c-1.2.7-1.2 1.9-.4 6.3l1.1 5.3-.2-5.5-.1-5.5 4-.6 4-.6-3.5-.1c-1.9-.1-4.1.2-4.9.7zm93 .4c-.2 4.5 4.3 10.8 7.6 10.7.4-.1-.4-.7-1.9-1.6-1.9-1-3.2-2.9-4.2-6.2-.8-2.6-1.5-3.9-1.5-2.9zm-82.9 1.3c1 1 2 1.5 2.4 1.2.3-.4-.5-1.2-1.8-1.8-2.2-1.2-2.2-1.2-.6.6zm50 .4c0 1.4.4 3.8.8 5.5.7 2.7.8 2.7.8.5 0-1.4-.4-3.9-.8-5.5-.7-2.7-.8-2.7-.8-.5zm-33.2.5c-.7.9-1.1 1.7-.9 2 .3.2 1-.5 1.7-1.5 1.4-2.4 1-2.6-.8-.5zm41.2 0c0 1.1.4 3.1.8 4.5.6 2 .8 2.1.8.5 0-1.1-.4-3.1-.8-4.5-.6-2-.8-2.1-.8-.5zm-34 .7c-2 2-1.4 8.3.9 10.9l2.1 2.4-1.6-2.5c-1.9-2.9-2.1-9.1-.4-10.8.7-.7 1-1.2.7-1.2-.3 0-1 .5-1.7 1.2zm5.9.5c.7 1.2 1.5 2 1.8 1.7.3-.2-.3-1.2-1.3-2.2-1.7-1.6-1.8-1.6-.5.5zm61.6.4c.7.7 1.5 1 1.8.7.3-.3-.2-.9-1.2-1.2-1.4-.6-1.5-.5-.6.5zM23 26.9c1.1 2.2 1.3 7.1.4 9.6-.4 1-2.1 2.3-3.8 3.1-1.9.8-2.4 1.3-1.3 1.4 3 0 6.7-4.5 6.7-8.2 0-4.3-1-7.8-2.2-7.8-.5 0-.4.8.2 1.9zm63.7 2.6c.3 2.7.7 5.2.9 5.4.8.9.2-6.5-.6-8.4-.6-1.3-.7-.2-.3 3zm30-1.5c-.3 1.1-.1 2 .4 2s.9-.9.9-2-.2-2-.4-2-.6.9-.9 2zM2.2 29c0 1.4.2 1.9.5 1.2.2-.6.2-1.8 0-2.5-.3-.6-.5-.1-.5 1.3zm30.1 2.5c0 2.2.2 3 .4 1.7.2-1.2.2-3 0-4-.3-.9-.5.1-.4 2.3zm19.9-.3c-.1 2.3-.8 4.1-1.9 4.7-1 .6-1.3 1.1-.7 1.1 2.1 0 3.5-2.8 3.1-6.2l-.4-3.3-.1 3.7zm7.9-.6c0 1.1.3 1.4.6.6.3-.7.2-1.6-.1-1.9-.3-.4-.6.2-.5 1.3zm4 1c0 1.1.3 1.4.6.6.3-.7.2-1.6-.1-1.9-.3-.4-.6.2-.5 1.3zm8.1 2.4c0 1.4.2 1.9.5 1.2.2-.6.2-1.8 0-2.5-.3-.6-.5-.1-.5 1.3zm-69 1c0 1.4.4 3.6.8 5 .6 2 .8 2.1.8.5 0-1.1-.4-3.4-.8-5-.7-2.7-.8-2.7-.8-.5zm32.9-.9c-.1.9.7 2.5 1.7 3.6.9 1 1.4 1.4 1 .8-.4-.6-1.2-2.2-1.7-3.6-.6-1.5-1-1.8-1-.8zm43.9.1c0 1.2.7 1.8 2.3 1.7 1.5 0 1.7-.2.7-.6-.8-.3-1.8-1.1-2.2-1.7-.5-.7-.8-.4-.8.6zm60-.8c0 .2 1.1.6 2.5.8 1.4.3 2.5.1 2.5-.3 0-.5-1.1-.9-2.5-.9s-2.5.2-2.5.4zm-81.4 2.3c-.6 1.4-.5 1.5.5.6.7-.7 1-1.5.7-1.8-.3-.3-.9.2-1.2 1.2zm78.4-.5c0 .7.4 1.9.9 2.7.7 1 .9.7.8-1.2-.2-2.6-1.7-3.9-1.7-1.5zM11.5 37c.3 1.4.5 3.1.5 3.7 0 .7 1 1.2 2.3 1.2 1.4-.1 1.6-.3.6-.6-.9-.2-2.1-1.8-2.8-3.6-.7-2-.9-2.3-.6-.7zm53.5-.1c0 1 1.9 2.5 2.5 2 .1-.2-.3-1-1.1-1.7s-1.4-.8-1.4-.3zm-34.4 1.8c-.6 1.4-.5 1.5.5.6.7-.7 1-1.5.7-1.8-.3-.3-.9.2-1.2 1.2zm40.2-1c.7.3 1.6.2 1.9-.1.4-.3-.2-.6-1.3-.5-1.1 0-1.4.3-.6.6zm-15.9 2c-1.3 1.5-1.2 1.5.9.4 2.3-1.2 2.8-2.1 1.3-2.1-.5 0-1.5.7-2.2 1.7zm90.8 4.8c.3 3.3.7 6.2.9 6.4.7.8.2-7.4-.6-9.9-.5-1.6-.6-.2-.3 3.5zM41.8 41.2c.5.5 1.6.8 2.3.6.8-.3.3-.7-1-1.1-1.7-.4-2.1-.3-1.3.5zm8 .5c.6.2 1.8.2 2.5 0 .6-.3.1-.5-1.3-.5-1.4 0-1.9.2-1.2.5zm44.5.4c2 1.2 2.3 4.5.5 5.2-.8.3-.6.6.5.6 1 .1 1.7-.6 1.7-1.8 0-3.1-1.1-5.1-2.9-5.1-1.4.1-1.4.2.2 1.1zm-6.3.8c0 .5.9.7 2 .4 1.1-.3 2-.7 2-.9 0-.2-.9-.4-2-.4s-2 .4-2 .9zm51.1.7c0 1.1.3 1.4.6.6.3-.7.2-1.6-.1-1.9-.3-.4-.6.2-.5 1.3zM24 44.5c-1.4.8-2 1.4-1.4 1.5.5 0 1.9-.7 3-1.5 2.4-1.8 1.6-1.9-1.6 0zM5.1 46.2c-.1 2.4.3 2.8 2.7 2.7 2.2-.1 2.3-.2.5-.6-1.3-.2-2.4-1.3-2.6-2.6-.4-1.8-.5-1.7-.6.5zM89 47.3c0 1 .8 1.7 1.8 1.7.9 0 1.3-.4.7-.8-.5-.4-1.3-1.1-1.7-1.6-.5-.5-.8-.2-.8.7zm-75.2.4c.6.2 1.8.2 2.5 0 .6-.3.1-.5-1.3-.5-1.4 0-1.9.2-1.2.5zm99.5 0c.9.2 2.5.2 3.5 0 .9-.3.1-.5-1.8-.5-1.9 0-2.7.2-1.7.5zm26.7 1.2c0 1.1.4 2.2.9 2.5.4.3.6-.6.3-1.9-.5-3-1.2-3.3-1.2-.6zm-32.6.3c-2.1 1-4.9 5.6-4 6.5.2.2.7-.5 1.1-1.7.4-1.2 2.1-3 3.8-4.1 3.4-2 2.7-2.5-.9-.7zm14 1.2c3.2 3.1 3.3 4.6.4 4.7-1.9.1-2 .2-.4.6 3.2.8 4.2-1.4 2-4.4-1.1-1.5-2.6-2.9-3.3-3.1-.7-.2-.1.7 1.3 2.2zm-26.9 1.3c1.1.3 2.3 1 2.7 1.7.5.7.8.5.8-.7s-.7-1.7-2.7-1.6c-2.2.1-2.3.2-.8.6zm-4.4 1.9c-.2 3.3 2 13.8 3 14.9.7.7.8.5.4-.6-.3-.8-1.2-4.9-1.9-9-.8-4.1-1.4-6.5-1.5-5.3zm20.8.1c-1.3 1.6-1.2 1.7.3.4 1-.7 2.7-1.1 3.8-.8 1.1.3 1.8.1 1.4-.4-.9-1.5-4.1-1-5.5.8zm36.2 1c-.1 1.7-.7 2.3-2.5 2.3-1.3 0-2.7-.5-2.9-1-.3-.6-.4-.5-.3.2.4 1.9 5.5 2.2 6.2.4.3-.8.4-2.1.1-2.8-.3-.7-.6-.3-.6.9zM20 54.6c3.5.7 9.8.9 9.4.2-.3-.5-2.9-.7-5.7-.7-2.9.1-4.5.3-3.7.5zm52.6.9c-1 .8-2.4 1.2-3 .8-.6-.3-.5 0 .1.7 1 1.1 1.6 1.1 3-.2 1-.8 2.5-1.8 3.3-2.1 1.3-.5 1.3-.5 0-.6-.8 0-2.4.6-3.4 1.4zm8.4-1.1c0 .2.7.6 1.5 1 .8.3 1.5.1 1.5-.4 0-.6-.7-1-1.5-1s-1.5.2-1.5.4zm-65.2 1.3c.7.3 1.6.2 1.9-.1.4-.3-.2-.6-1.3-.5-1.1 0-1.4.3-.6.6zm-7.4 1.7c-.3.8-.4 2.3-.1 3.3.3 1.2.5.9.6-.9.1-1.6.8-2.8 1.9-3.1 1.6-.4 1.6-.5-.1-.6-1 0-2 .5-2.3 1.3zm23.9.2c.5.7 1.2 2.5 1.7 4.1.7 2.3.8 2.4.9.7.1-1.2-.7-3-1.6-4.1-1-1-1.4-1.3-1-.7zm31.1-.1c-.3.8-.4 2-.1 2.7.3.7.6.3.6-.9.1-1.4.9-2.3 2.4-2.6l2.2-.4-2.3-.2c-1.2 0-2.5.6-2.8 1.4zm21.7-1c0 .5.6 3.2 1.3 6 .8 2.7 1.4 4.1 1.4 3 0-2.1-2.5-10.7-2.7-9zm13.1 2c0 1.1.4 3.3.8 5 .7 2.7.8 2.7.8.5 0-1.4-.4-3.6-.8-5-.6-2-.8-2.1-.8-.5zm4 1c0 1.6.2 2.2.5 1.2.2-.9.2-2.3 0-3-.3-.6-.5.1-.5 1.8zM55 60c.8.5 2.2 1 3 1 1.3 0 1.3-.1 0-1-.8-.5-2.2-1-3-1-1.3 0-1.3.1 0 1zm18.2.2c-.7.7-1.2 1.7-1.2 2.2 0 .6.5.3 1.1-.7 1.4-2.3 4.6-2.2 5.4.4.4 1.1.9 1.8 1.2 1.6.2-.3 0-1.5-.7-2.6-1.2-2.3-4-2.7-5.8-.9zm67.9-.5c0 .5.4 1.7.9 2.8.8 1.9.9 1.9.9-.2.1-1.2.7-2.4 1.4-2.6.6-.3.2-.6-1-.6-1.3-.1-2.3.2-2.2.6zm7.7 2.8c.2 1.9.6 3.5.8 3.5.2 0 .4-1.6.4-3.5s-.4-3.5-.8-3.5-.6 1.6-.4 3.5zM21.5 60.7c1.7.3 3.7 1 4.5 1.6 1.3 1 1.3 1 .1-.6-.8-1-2.5-1.6-4.5-1.6l-3.1.2 3 .4zm88.6.9c0 1.1.3 1.4.6.6.3-.7.2-1.6-.1-1.9-.3-.4-.6.2-.5 1.3zm9.7-.9c-1 .2-1.8 1.2-1.8 2.2 0 .9-.6 2.3-1.2 3.1-1.1 1.2-1 1.2.5.1.9-.7 1.7-1.9 1.7-2.6 0-1.3 2.1-2.5 4.6-2.5 2.6 0 1.5 4.7-1.7 7.4-1.7 1.4-2.7 2.6-2.2 2.6 2 0 6.3-5.7 6.3-8.3 0-2.8-1.5-3.2-6.2-2zM16.2 63c0 1.4.2 1.9.5 1.2.2-.6.2-1.8 0-2.5-.3-.6-.5-.1-.5 1.3zm42.4.5c.4.8.8 1.5 1 1.5.2 0 .4-.7.4-1.5s-.4-1.5-1-1.5c-.5 0-.7.7-.4 1.5zM9.1 65.6c.1 1.6.5 4 .9 5.4.6 1.7.7.9.3-2.5-.6-5.6-1.4-7.4-1.2-2.9zm38.2-1.9c-.7.2-1.3 1.1-1.3 1.9 0 .8-1.3 2.6-3 4.1-1.6 1.4-3 3.1-3 3.7 0 .6.7.1 1.5-1.2.9-1.2 3.7-2.8 6.2-3.5 2.6-.8 4.9-2 5.1-2.8.2-.9.1-1-.5-.3-.4.6-2 1.4-3.5 1.8-2.3.5-2.6.3-2.1-1 .3-.8 1.5-2 2.7-2.4 1.2-.5 1.4-.9.6-.9-.8.1-2.1.3-2.7.6zm55.8.3c0 1.7 2.2 5 3.4 5 .5 0 .1-.8-.7-1.8-.9-.9-1.8-2.4-2.1-3.2-.5-1.3-.5-1.3-.6 0zM64 65.9c0 1.1.4 2.2.9 2.5.4.3.6-.6.3-1.9-.5-3-1.2-3.3-1.2-.6zm48.2-.3c1 1 2 1.6 2.2 1.3.3-.3-.5-1.1-1.7-1.8-2.1-1.3-2.1-1.2-.5.5zm-78.2.9c0 1-.8 2.7-1.7 3.7-1.6 1.8-1.6 1.8 0 1.2 1.8-.6 3.4-5 2.3-6.1-.3-.4-.6.2-.6 1.2zm109.6-.4c.4.7 4.4 0 4.4-.7 0-.2-1.1-.3-2.4-.2-1.4.1-2.3.5-2 .9zm-119 1.4c-1.1.8-1.5 1.5-.9 1.5s1.6-.7 2.3-1.5c1.6-1.9 1.1-1.9-1.4 0zm55.6.5c0 1.4.2 1.9.5 1.2.2-.6.2-1.8 0-2.5-.3-.6-.5-.1-.5 1.3zm-63.2.3c0 1 .8 1.7 1.8 1.7.9 0 1.3-.4.7-.8-.5-.4-1.3-1.1-1.7-1.6-.5-.5-.8-.2-.8.7zm43.2 1.2c0 1.6.2 2.2.5 1.2.2-.9.2-2.3 0-3-.3-.6-.5.1-.5 1.8zm11.9-.9c0 1.1.3 1.4.6.6.3-.7.2-1.6-.1-1.9-.3-.4-.6.2-.5 1.3zm28.1.9c0 1.6.2 2.2.5 1.2.2-.9.2-2.3 0-3-.3-.6-.5.1-.5 1.8zm-60.4-.8c.7.3 1.6.2 1.9-.1.4-.3-.2-.6-1.3-.5-1.1 0-1.4.3-.6.6zM88.2 71c0 1.4.2 1.9.5 1.2.2-.6.2-1.8 0-2.5-.3-.6-.5-.1-.5 1.3zm-23.2.9c0 1.1.4 2.2.9 2.5.4.3.6-.6.3-1.9-.5-3-1.2-3.3-1.2-.6zm28.4.6c.1 1.3.8 2 2.4 2.1 1.7.1 1.8.1.3-.3-1.1-.2-2.2-1.2-2.4-2.1-.3-1.2-.4-1.1-.3.3zm-45.4.3c-1.9 1.6-2.1 2.2-1.1 4 .6 1.2 1.9 2.1 2.9 2.1 1.5-.1 1.5-.2 0-.6-2.5-.6-3.2-3.5-1.2-5 3.2-2.3 4.7-1.6 4 1.7-.3 1.9-.2 2.9.4 2.5.6-.3 1-1.9 1-3.6 0-3.5-2.5-3.9-6-1.1zm64.8-1.1c1.2.2 3 .2 4 0 .9-.3-.1-.5-2.3-.4-2.2 0-3 .2-1.7.4zM28 73c-.9.6-1 1-.3 1 .6 0 1.5-.5 1.8-1 .8-1.2.4-1.2-1.5 0zm53.1 1.2c-.1 2.5.2 2.8 3.2 2.7 2.9-.2 2.9-.2.5-.6-1.8-.3-2.8-1.2-3.1-2.6-.4-1.8-.5-1.7-.6.5zm-7.8 1c.3 2.2-.1 2.7-2.6 3.2-1.6.3-3.3.3-3.8 0s-.9 0-.9.6c0 .8 1.3 1 4.3.5 2.3-.4 4.4-.9 4.6-1.1.1-.1-.2-1.5-.8-3.1L73 72.5l.3 2.7zm-50.5-.5c.6.2 1.8.2 2.5 0 .6-.3.1-.5-1.3-.5-1.4 0-1.9.2-1.2.5zM11.2 77c0 1.4.2 1.9.5 1.2.2-.6.2-1.8 0-2.5-.3-.6-.5-.1-.5 1.3zm7.8 1c0 3.9.6 3.9 1.2 0 .3-1.6.1-3-.4-3-.4 0-.8 1.3-.8 3zm20.1-1.4c0 1.1.3 1.4.6.6.3-.7.2-1.6-.1-1.9-.3-.4-.6.2-.5 1.3zm22.4.3c.5 1.5.2 2.7-.6 3.2-1.1.7-1 .9.4.9 1.9 0 2.3-2.7.6-5-.8-1.2-.9-1-.4.9zM40 79.8c0 1.8 4.3 4.2 7.5 4.1 2.7-.1 2.6-.2-.9-.9-2.2-.4-4.5-1.6-5.3-2.6-.7-1-1.3-1.3-1.3-.6zm13.4 1.4c-1 1.3-1.2 1.8-.5 1.1.7-.6 2-.9 2.7-.6 1 .4 1.2 0 .8-1.1-.8-2-.7-2-3 .6zm-41.3 1.9c0 1.3.4 3.3.9 4.4.7 1.4.8.8.3-2-.7-4.6-1.3-5.9-1.2-2.4zm8 2.6c-.1 1.6-.9 2.3-2.8 2.6l-2.8.4 2.8.2c2.8.1 4.3-1.7 3.4-4.1-.3-.7-.6-.3-.6.9z"/><path fill="#300" d="M103.9 3.7c-1.3 1.7-1.3 1.7.6.3 1.1-.8 2.2-1.6 2.4-1.7.2-.2 0-.3-.6-.3s-1.7.8-2.4 1.7zM87.1 6.6c0 1.1.3 1.4.6.6.3-.7.2-1.6-.1-1.9-.3-.4-.6.2-.5 1.3zm25.5 1.7c.3 1 .9 1.5 1.2 1.2.3-.3 0-1.1-.7-1.8-1-.9-1.1-.8-.5.6zm-18.4 3.2c0 1.6.2 2.2.5 1.2.2-.9.2-2.3 0-3-.3-.6-.5.1-.5 1.8zm2.9.1c0 1.1.3 1.4.6.6.3-.7.2-1.6-.1-1.9-.3-.4-.6.2-.5 1.3zm3.7 2.1c.7.3 1.6.2 1.9-.1.4-.3-.2-.6-1.3-.5-1.1 0-1.4.3-.6.6zm-96 3c.7.3 1.6.2 1.9-.1.4-.3-.2-.6-1.3-.5-1.1 0-1.4.3-.6.6zm98.3 1.9c0 1.1.3 1.4.6.6.3-.7.2-1.6-.1-1.9-.3-.4-.6.2-.5 1.3zm-55.8.1c.9.2 2.3.2 3 0 .6-.3-.1-.5-1.8-.5-1.6 0-2.2.2-1.2.5zm-3.4 5c-1.2 1.6-1.2 1.7.1.7.8-.7 2.4-1.4 3.5-1.7 1.9-.4 1.9-.5-.1-.6-1.2 0-2.8.7-3.5 1.6zm13.7.6c.3 1 .9 1.5 1.2 1.2.3-.3 0-1.1-.7-1.8-1-.9-1.1-.8-.5.6zm57.2 1.4c.7.3 1.6.2 1.9-.1.4-.3-.2-.6-1.3-.5-1.1 0-1.4.3-.6.6zm-83.7 1.9c0 1.1.3 1.4.6.6.3-.7.2-1.6-.1-1.9-.3-.4-.6.2-.5 1.3zm28 1c0 1.1.3 1.4.6.6.3-.7.2-1.6-.1-1.9-.3-.4-.6.2-.5 1.3zm5 0c0 1.1.3 1.4.6.6.3-.7.2-1.6-.1-1.9-.3-.4-.6.2-.5 1.3zm-61 3c0 1.1.3 1.4.6.6.3-.7.2-1.6-.1-1.9-.3-.4-.6.2-.5 1.3zm77 0c0 1.1.3 1.4.6.6.3-.7.2-1.6-.1-1.9-.3-.4-.6.2-.5 1.3zm29.7-.9c.7.3 1.6.2 1.9-.1.4-.3-.2-.6-1.3-.5-1.1 0-1.4.3-.6.6zm-50.7 1.9c0 1.1.3 1.4.6.6.3-.7.2-1.6-.1-1.9-.3-.4-.6.2-.5 1.3zm6 2c0 1.1.3 1.4.6.6.3-.7.2-1.6-.1-1.9-.3-.4-.6.2-.5 1.3zm19.7.1c.7.3 1.6.2 1.9-.1.4-.3-.2-.6-1.3-.5-1.1 0-1.4.3-.6.6zM38 37.4c0 .2.8 1 1.8 1.7 1.5 1.3 1.6 1.2.3-.4S38 36.6 38 37.4zm28.8.3c.6.2 1.8.2 2.5 0 .6-.3.1-.5-1.3-.5-1.4 0-1.9.2-1.2.5zm-38.9 4c-1.3 1.6-1.2 1.7.4.4.9-.7 1.7-1.5 1.7-1.7 0-.8-.8-.3-2.1 1.3zm-22.8.9c0 1.1.3 1.4.6.6.3-.7.2-1.6-.1-1.9-.3-.4-.6.2-.5 1.3zm40.7-.9c.6.2 1.8.2 2.5 0 .6-.3.1-.5-1.3-.5-1.4 0-1.9.2-1.2.5zm99.3 2.9c0 1.1.3 1.4.6.6.3-.7.2-1.6-.1-1.9-.3-.4-.6.2-.5 1.3zM10.8 47.7c.7.3 1.6.2 1.9-.1.4-.3-.2-.6-1.3-.5-1.1 0-1.4.3-.6.6zm81 0c.7.3 1.6.2 1.9-.1.4-.3-.2-.6-1.3-.5-1.1 0-1.4.3-.6.6zm20 1c.7.3 1.6.2 1.9-.1.4-.3-.2-.6-1.3-.5-1.1 0-1.4.3-.6.6zm34.3 3.9c0 1.1.3 1.4.6.6.3-.7.2-1.6-.1-1.9-.3-.4-.6.2-.5 1.3zm-68.3 2.1c.6.2 1.8.2 2.5 0 .6-.3.1-.5-1.3-.5-1.4 0-1.9.2-1.2.5zM97.2 56c0 1.4.2 1.9.5 1.2.2-.6.2-1.8 0-2.5-.3-.6-.5-.1-.5 1.3zm20.5-.9c.7.7 1.5 1 1.8.7.3-.3-.2-.9-1.2-1.2-1.4-.6-1.5-.5-.6.5zM12.8 56.7c.7.3 1.6.2 1.9-.1.4-.3-.2-.6-1.3-.5-1.1 0-1.4.3-.6.6zm90.3.9c0 1.1.3 1.4.6.6.3-.7.2-1.6-.1-1.9-.3-.4-.6.2-.5 1.3zm6 2c0 1.1.3 1.4.6.6.3-.7.2-1.6-.1-1.9-.3-.4-.6.2-.5 1.3zm-61.3.1c.6.2 1.8.2 2.5 0 .6-.3.1-.5-1.3-.5-1.4 0-1.9.2-1.2.5zM71.2 65c0 1.9.2 2.7.5 1.7.2-.9.2-2.5 0-3.5-.3-.9-.5-.1-.5 1.8zm-44.1-.4c0 1.1.3 1.4.6.6.3-.7.2-1.6-.1-1.9-.3-.4-.6.2-.5 1.3zm53 0c0 1.1.3 1.4.6.6.3-.7.2-1.6-.1-1.9-.3-.4-.6.2-.5 1.3zm-41 2c0 1.1.3 1.4.6.6.3-.7.2-1.6-.1-1.9-.3-.4-.6.2-.5 1.3zm4.4.4c-1.6.7-1.7.9-.3.9.9.1 2-.4 2.3-.9.7-1.1.7-1.1-2 0zm9 0c-.3.5-.1 1 .4 1 .6 0 1.1-.5 1.1-1 0-.6-.2-1-.4-1-.3 0-.8.4-1.1 1zm-31.7 2.7c.7.3 1.6.2 1.9-.1.4-.3-.2-.6-1.3-.5-1.1 0-1.4.3-.6.6zm60.3.9c0 1.1.3 1.4.6.6.3-.7.2-1.6-.1-1.9-.3-.4-.6.2-.5 1.3zM72.2 72c0 1.4.2 1.9.5 1.2.2-.6.2-1.8 0-2.5-.3-.6-.5-.1-.5 1.3zm-61.1 1.6c0 1.1.3 1.4.6.6.3-.7.2-1.6-.1-1.9-.3-.4-.6.2-.5 1.3zM99 73c-.9.6-1 1-.3 1 .6 0 1.5-.5 1.8-1 .8-1.2.4-1.2-1.5 0zm-11.4 1.7c-.6 1.4-.5 1.5.5.6.7-.7 1-1.5.7-1.8-.3-.3-.9.2-1.2 1.2zm-75.5 4.9c0 1.1.3 1.4.6.6.3-.7.2-1.6-.1-1.9-.3-.4-.6.2-.5 1.3zm7 3c0 1.1.3 1.4.6.6.3-.7.2-1.6-.1-1.9-.3-.4-.6.2-.5 1.3z"/><g fill="#600" stroke-width="0"><path d="M90.5 2.1c-1.1 1.6-.1 1.9 1.3.3.7-.8.8-1.4.3-1.4s-1.3.5-1.6 1.1zM87 3.6c0 .8.5 1.2 1 .9.6-.3 1-1 1-1.6 0-.5-.4-.9-1-.9-.5 0-1 .7-1 1.6zm4.5 1.5c-1.6 1.6-1.6 1.9-.3 1.4s1.8 0 2.1 2.2c.3 2.1.4 1.7.6-1.5 0-2.3 0-4.2-.1-4.1-.2 0-1.2.9-2.3 2zm13-1.1c-.5.8-.4 1.1.2.7.6-.4 1.4 0 1.7.9 1.1 2.7.7 3.7-.9 2.4-.8-.7-1.5-.9-1.6-.4 0 .5-.4 0-.9-1.1-.8-1.9-.9-1.9-.9.4-.1 1.6.3 2.1 1.3 1.8.7-.3 1.7-.2 2.2.2.5.5 2 .5 3.4 0 1.6-.4 1.9-.7.8-.8-1-.1-1.8-.5-1.8-.9 0-.5-.6-1.6-1.3-2.7-1.1-1.4-1.6-1.5-2.2-.5zm-15.2 7.5c-.3.9-.3 1.8-.1 2.1.3.3.8-.4 1.1-1.6.6-2.3-.1-2.7-1-.5zm9.5-.8c.7.3 1.6.2 1.9-.1.4-.3-.2-.6-1.3-.5-1.1 0-1.4.3-.6.6zm12 0c-2.4.4-2.8.9-2.7 3.6.2 3 .2 3.1.6.4.3-1.8 1-2.7 2.3-2.7 1 0 2.2-.5 2.5-1 .3-.6.5-.9.3-.9-.2.1-1.5.4-3 .6zm-8 4c.5 2.6 1.5 2.3 1.7-.6.1-1-.4-1.8-1-1.8-.7 0-1 1-.7 2.4zm-11-1c.7.3 1.6.2 1.9-.1.4-.3-.2-.6-1.3-.5-1.1 0-1.4.3-.6.6zm-19.5 2.4c-.5 1.6-.8 1.8-1.5.7-.8-1-.9-.9-.4.4.3 1.1-.2 1.9-1.5 2.3-1.1.4-1.8.9-1.5 1.2.3.3 1.7-.2 3-1.1 4.6-3 9.5-1.2 9 3.3l-.4 2.6.9-2.5c.4-1.4 1.4-2.4 2.2-2.2.8.2 1 0 .6-.5-.5-.4-1.3-.9-1.8-.9-.5-.1-1.4-.2-1.9-.3-.6 0-1.5-1.1-2-2.4-.5-1.2-.9-1.6-.9-1-.1.7-.8 1.3-1.6 1.3-1.8 0-2-1.6-.2-2.3.9-.4.9-.6-.1-.6-.8-.1-1.6.8-1.9 2zm9.5-.3c.9 1 1.9 1.7 2.1 1.6.6-.5-2-3.4-3-3.4-.5 0-.1.8.9 1.8zm-69.6-.3c.8.8 7.7.9 8.5.2.3-.4-1.5-.7-4.2-.7s-4.6.2-4.3.5zm-4.4 1.2c.6.2 1.8.2 2.5 0 .6-.3.1-.5-1.3-.5-1.4 0-1.9.2-1.2.5zm14.2-.3c0 .2.7.7 1.6 1 .8.3 1.2.2.9-.4-.6-1-2.5-1.4-2.5-.6zm41.8.3c.6.2 1.8.2 2.5 0 .6-.3.1-.5-1.3-.5-1.4 0-1.9.2-1.2.5zm3.8 1c-.6 1.4-.5 1.5.5.6.7-.7 1-1.5.7-1.8-.3-.3-.9.2-1.2 1.2zM1.5 18c-.3.6.1.7.9.4 1.8-.7 2.1-1.4.7-1.4-.6 0-1.3.4-1.6 1zm4.1 1.3c.3 1 .9 1.5 1.2 1.2.3-.3 0-1.1-.7-1.8-1-.9-1.1-.8-.5.6zm8.9-.3-4 .7 3.7.2c2 0 4-.4 4.3-.9.3-.6.5-.9.3-.9-.2.1-2.1.5-4.3.9zm12.2.2c.7.8 1 1.7.7 2-.2.3.2.8 1.1 1.2 1.3.4 1.4.2.5-1.4-.5-1-1.6-2.2-2.3-2.6-.9-.6-.9-.5 0 .8zm36.5.8c0 1.4.2 1.9.5 1.2.2-.6.2-1.8 0-2.5-.3-.6-.5-.1-.5 1.3zm45.6-1.5c-.4.4-.2 1.8.3 3.2.5 1.4.7 2.9.3 3.4-.3.5 0 .8.8.7.7-.2 1.2.2 1.1.8-.1.8.6 1 1.9.6l2.2-.5-2.2-.8c-1.2-.5-2.4-2-2.8-3.6-.3-1.5-.7-3.2-.8-3.6-.1-.5-.4-.5-.8-.2zm-68.5 3.1c-1.5 1.5-2.1 2.1-1.2 1.5.9-.6 2-.7 2.4-.3.5.4.5.1.1-.6-.4-.6-.3-1.2.1-1.2.5 0 1.5.6 2.3 1.2 1.2 1.1 1.2 1 .1-.4-1-1.4-.9-1.7.6-2.1 1.6-.4 1.6-.5.1-.6-.9 0-3 1.1-4.5 2.5zM50.5 20c-.3.6.1.7.9.4 1.8-.7 2.1-1.4.7-1.4-.6 0-1.3.4-1.6 1zm33.7 1c0 1.4.2 1.9.5 1.2.2-.6.2-1.8 0-2.5-.3-.6-.5-.1-.5 1.3zm-82 1.5c0 1.6.2 2.2.5 1.2.2-.9.2-2.3 0-3-.3-.6-.5.1-.5 1.8zM22 23c1.6 1.8 3.1 4.4 3.1 5.9.2 2.4.2 2.4.6.3.3-1.3-.1-3-.7-3.8-.9-1-.9-1.8-.2-2.7.8-.9.7-1.3-.6-1.3-.9-.1-2.5-.4-3.5-.9-1-.4-.5.6 1.3 2.5zm31.4-1.8c-.4.7-.4 1 .1.6.4-.4 1.5-.2 2.4.5 1.4 1.1 1.4 1 .2-.6-1.6-2-1.8-2.1-2.7-.5zm50.7.4c0 1.1.3 1.4.6.6.3-.7.2-1.6-.1-1.9-.3-.4-.6.2-.5 1.3zm-53.5 2.6c1 1.4 2.1 2.4 2.3 2.2.3-.3-.6-1.5-1.8-2.7l-2.4-2.2 1.9 2.7zM8.2 25c0 1.4.2 1.9.5 1.2.2-.6.2-1.8 0-2.5-.3-.6-.5-.1-.5 1.3zm73.3-1.1c-.3.5-.2 1.2.3 1.5.5.3.9-.1.9-.9 0-1.7-.3-1.9-1.2-.6zM42.2 26c0 1.4.2 1.9.5 1.2.2-.6.2-1.8 0-2.5-.3-.6-.5-.1-.5 1.3zm42.9-.4c0 1.1.3 1.4.6.6.3-.7.2-1.6-.1-1.9-.3-.4-.6.2-.5 1.3zm-79.8.9c0 .8.4 1.2.9.9.5-.3.6-1 .3-1.5-.9-1.3-1.2-1.1-1.2.6zm31.1 1.9c-.3 1.9-.1 4.3.5 5.3.9 1.5 1 1.2.5-1.3-.3-1.7-.1-4.1.5-5.3.7-1.3.8-2.1.2-2.1-.6 0-1.3 1.5-1.7 3.4zm68.6-2.7c0 .5.4 1.4.9 2.1.7 1.1.9 1.1 1.4-.1.3-.8.3-1.8 0-2.1-.9-.8-2.3-.7-2.3.1zM3.2 28c0 1.4.2 1.9.5 1.2.2-.6.2-1.8 0-2.5-.3-.6-.5-.1-.5 1.3zm112.9-.4c0 1.1.3 1.4.6.6.3-.7.2-1.6-.1-1.9-.3-.4-.6.2-.5 1.3zm-46 1.1c0 1.2-.9 2.7-1.8 3.2-1 .6-1.3 1.1-.7 1.1 1.8 0 3.6-2.7 3.1-4.7-.4-1.4-.5-1.4-.6.4zM9 30.1c0 1.1-.4 1.8-.9 1.4-.5-.3-1.2-.2-1.5.3-.2.4.4.9 1.5.9 1.4.1 1.9-.5 1.9-2.3 0-1.3-.2-2.4-.5-2.4s-.5.9-.5 2.1zm44.1-.5c0 1.1.3 1.4.6.6.3-.7.2-1.6-.1-1.9-.3-.4-.6.2-.5 1.3zM31.2 32c0 1.9.2 2.7.5 1.7.2-.9.2-2.5 0-3.5-.3-.9-.5-.1-.5 1.8z"/><path d="M38.9 30.3c.6.8.7 1.8.3 2.2-.4.5-.1.5.6.1 1-.6 1-1.1.1-2.2-.6-.8-1.4-1.4-1.6-1.4-.3 0 0 .6.6 1.3zm72.9-.6c.6.2 1.8.2 2.5 0 .6-.3.1-.5-1.3-.5-1.4 0-1.9.2-1.2.5zm-69.7 1.9c0 1.1.3 1.4.6.6.3-.7.2-1.6-.1-1.9-.3-.4-.6.2-.5 1.3zm23 0c0 1.1.3 1.4.6.6.3-.7.2-1.6-.1-1.9-.3-.4-.6.2-.5 1.3zm21.1.4c0 1.4.2 1.9.5 1.2.2-.6.2-1.8 0-2.5-.3-.6-.5-.1-.5 1.3zm-58.5.5c-.4.8-.1 1.7.6 2.1.7.4.9.4.5-.1-.4-.4-.3-1.4.3-2.2.7-.8.8-1.3.1-1.3-.5 0-1.2.7-1.5 1.5zM81 33c0 1.1.7 2 1.5 2s1.5-.5 1.5-1.1c0-.5-.5-.7-1.2-.3-.8.5-.9.2-.5-.9.3-1 .2-1.7-.3-1.7-.6 0-1 .9-1 2zm-28-.1c0 .5-.3 1.8-.6 2.8-.4 1.3-.3 1.4.4.5.7-1.1 1-1 1.6.3.3.9.3 2.2-.1 2.8-.3.7.3.4 1.5-.7 1.9-1.6 2.2-3.6.6-3.6-.3 0-.2.4.1 1 .3.5.2 1-.3 1-1.2 0-2.4-2.9-1.6-4.1.3-.5 0-.9-.5-.9-.6 0-1.1.4-1.1.9zM4.1 34.6c0 1.1.3 1.4.6.6.3-.7.2-1.6-.1-1.9-.3-.4-.6.2-.5 1.3zm53.4-.6c.3.5.8 1 1.1 1 .2 0 .4-.5.4-1 0-.6-.5-1-1.1-1-.5 0-.7.4-.4 1zm13.6.3c-.1 1.2-.6 1.6-1.3 1.1-1-.5-1-.4-.1.6 1.6 1.7 2.6.8 2-1.7-.4-1.7-.5-1.7-.6 0zM10.2 36c0 1.4.2 1.9.5 1.2.2-.6.2-1.8 0-2.5-.3-.6-.5-.1-.5 1.3zm14.9-.8c-.2 4-11.3 8.8-13.2 5.7-.7-1.1-.9-1-.9.3 0 1.1.8 1.9 2 1.9 3.9.3 4.5.5 4.3 1.6-.3 1.4 3.6 1 6.3-.6 1.9-1.1 1.9-1.1-.1-.9-1.1.2-2.3.7-2.7 1.2-.4.6-1.3.4-2.3-.4-1.5-1.3-1.5-1.5.5-2.2 1.2-.4 2.7-.5 3.3-.1.7.3.9.2.4-.2-.4-.5.2-1.9 1.4-3.1 1.2-1.2 1.9-2.9 1.6-3.6-.4-.9-.6-.8-.6.4zm16.9.3c-.7.9-.8 1.5-.2 1.5.5 0 1.2-.7 1.6-1.5.3-.8.4-1.5.2-1.5s-.9.7-1.6 1.5zm99.2-.8c.9.2 1.9 1.2 2.1 2.1.3 1.2.5 1 .6-.6.1-1.7-.4-2.2-2.1-2.1-1.6.1-1.8.3-.6.6zM29.5 37c.3.5.8 1 1.1 1 .2 0 .4-.5.4-1 0-.6-.5-1-1.1-1-.5 0-.7.4-.4 1zm10.4 1.2c1.4 1.6 3.2 2.8 4 2.7 1.4 0 1.4-.1.1-.6-.8-.3-2.6-1.5-4-2.7l-2.5-2.1 2.4 2.7zm4.1-1.8c0 .2.7.7 1.6 1 .8.3 1.2.2.9-.4-.6-1-2.5-1.4-2.5-.6zm5 1c0 .2.7.7 1.6 1 .8.3 1.2.2.9-.4-.6-1-2.5-1.4-2.5-.6zM28.5 40c-.3.5-1.1.8-1.8.6-.7-.1-.9-.1-.4.1.4.3.4 1 0 1.6-.3.7.3.3 1.5-.7 1.2-1.1 2.2-2.1 2.2-2.3 0-.6-.9-.3-1.5.7zm115.6.6c0 1.1.3 1.4.6.6.3-.7.2-1.6-.1-1.9-.3-.4-.6.2-.5 1.3zm-94.3.1c.7.3 1.6.2 1.9-.1.4-.3-.2-.6-1.3-.5-1.1 0-1.4.3-.6.6zm90.4 2.3c0 1.4.2 1.9.5 1.2.2-.6.2-1.8 0-2.5-.3-.6-.5-.1-.5 1.3zm-50.7 1c-.3.5-.2 1.8.4 2.7.7 1.4.9 1.2.8-1-.2-3-.3-3.1-1.2-1.7zM6 45.9c0 1.5.6 2.1 2.3 2 1.7-.1 1.8-.2.4-.6-.9-.2-1.5-.8-1.2-1.3.3-.5.1-1.1-.5-1.5-.5-.3-1 .3-1 1.4zm88.5.1c-.3.5-.1 1 .4 1 .6 0 1.1-.5 1.1-1 0-.6-.2-1-.4-1-.3 0-.8.4-1.1 1zm50.1.4c.5 1.4.4 1.7-.5 1.2-.9-.6-.9-.3.1 1.3l1.3 2.2.3-2.2c.2-1.2-.1-2.6-.8-3.3-.8-.8-.9-.6-.4.8zm-130.8.3c.7.3 1.6.2 1.9-.1.4-.3-.2-.6-1.3-.5-1.1 0-1.4.3-.6.6zm127.3 1.9c0 1.1.3 1.4.6.6.3-.7.2-1.6-.1-1.9-.3-.4-.6.2-.5 1.3zm-26.3.1c.6.2 1.8.2 2.5 0 .6-.3.1-.5-1.3-.5-1.4 0-1.9.2-1.2.5zm-6.5 2c-.3 1-.8 2.2-1.1 2.7-.3.5 0 .6.6.2.5-.3 1.2-.2 1.4.3.1.5 1 .2 1.8-.7 1.3-1.4 1.2-1.5-.3-.9-1.1.4-1.7.2-1.7-.7 0-.8.6-1.7 1.3-1.9.9-.4.9-.6-.1-.6-.7-.1-1.5.7-1.9 1.6zm6.5.1c-1.5.6-1.3.9.8 1.9 2.1 1 2.3.9 1.5-.1-.6-.7-.8-1.6-.4-1.9.8-.8.4-.8-1.9.1zm-20.5 1.9c.9.2 1.5.9 1.2 1.4-.4.5-.1.9.4.9.6 0 1.1-.7 1.1-1.5 0-.9-.9-1.5-2.2-1.4-1.8.1-1.9.2-.5.6zm-3.2 1.9c0 1.1.3 1.4.6.6.3-.7.2-1.6-.1-1.9-.3-.4-.6.2-.5 1.3zm28.4-.6c-.4.6.3 1 1.4 1 2.5 0 2.7-.6.6-1.3-.8-.4-1.7-.2-2 .3zm22.8.4c.1 1.1.9 2.1 1.7 2.3 1 .3 1.1.2.4-.4-.6-.4-1.4-1.5-1.7-2.3-.5-1.1-.6-.9-.4.4zM21.8 55.7c1.2.2 3.2.2 4.5 0 1.2-.2.2-.4-2.3-.4s-3.5.2-2.2.4zm59.9-.1c.7.3.9 1.3.6 2.2-.4 1.3-.3 1.4.5.3.8-1.1 1.1-.9 1.7.8.4 1.3.9 2 1.2 1.7.9-.8-2.6-5.6-4-5.5-.9 0-.9.2 0 .5zm25.3.3c0 .6.4 1.3 1 1.6.6.3.7-.1.4-.9-.7-1.8-1.4-2.1-1.4-.7zm-91.2.8c.6.2.9 1 .6 1.5-.4.7-.2.8.5.4 1.3-.9.5-2.6-1.2-2.5-.9 0-.8.2.1.6zm56.2.8c-1.1 1.3-1.5 1.3-2.1.3-.5-.7-.9-.9-.9-.3.1.5.7 1.9 1.5 2.9.8 1.1 1.5 1.5 1.5.8 0-1.7 4.8-2.6 6.4-1.3 1 .9 1.5.8 1.9-.3.5-1.1-.3-1.4-3.8-1.2-3.6.2-4.2 0-3.4-1.1.6-.7.9-1.3.6-1.3-.2 0-1 .7-1.7 1.5zM9.1 59.2c.1 1.9.2 2 .6.5.4-1.5 1.1-1.7 3.1-1.3 2 .5 2.3.4 1.2-.4-2.7-1.8-5-1.2-4.9 1.2zm22.2-.7c0 .8.4 1.2.9.9.5-.3.6-1 .3-1.5-.9-1.3-1.2-1.1-1.2.6zm33.1 0c-.3.8-.4 2-.1 2.7.3.7.6.3.6-.9.1-1.2.9-2.4 1.9-2.6 1.6-.4 1.6-.5-.1-.6-1 0-2 .6-2.3 1.4zm-41.9.5-4 .7 3.7.2c2.4 0 4.1.7 4.7 1.8.6 1 1.1 1.3 1.1.6 0-.6-.5-1.5-1-1.8-.6-.4-.8-1.1-.5-1.6.4-.5.5-.8.3-.8-.2.1-2.1.5-4.3.9zm69.8.5c-.1 1.1.3 3.3.7 5l.8 3 .1-2.7c.1-2.1.5-2.6 1.9-2.2 1.4.5 1.4.4.2-.4-.8-.6-1.7-.9-2.1-.6-.4.2-1-.6-1.2-1.8-.3-1.9-.4-1.9-.4-.3zm4.2-.6c-.3.5-.2 1.2.3 1.5.5.3.9-.1.9-.9 0-1.7-.3-1.9-1.2-.6zM51.6 60c.5.4 1.8 1 2.9 1.2 1.1.2 2.5 1.4 3.2 2.8.8 1.6 1.3 1.9 1.3.9 0-.9-.8-2.3-1.7-3.1-1.9-1.6-7.3-3.3-5.7-1.8zm15.8 1.9c.1 1.6.3 3.2.6 3.5.3.3.5-.8.5-2.4 0-1.6-.3-3.1-.6-3.4-.3-.3-.5.7-.5 2.3zm38.2-1.7c.3.5 1 .6 1.5.3 1.3-.9 1.1-1.2-.6-1.2-.8 0-1.2.4-.9.9zm39.7-.5c-1.6.3-2.3 1.1-2.2 2.6.1 1.8.2 1.9.6.4.6-2.3 3.9-1.7 3.6.7-.1 1.3.2 1.5 1 .7.7-.7.7-1.4-.1-2.4-.7-.8-.9-1.7-.5-2 .3-.4.4-.6.2-.6-.2.1-1.4.4-2.6.6zM15 62.5c0 1.4.2 2.5.4 2.5s.6-1.1.8-2.5c.3-1.4.1-2.5-.3-2.5-.5 0-.9 1.1-.9 2.5zm31.8-1.8c.7.3 1.6.2 1.9-.1.4-.3-.2-.6-1.3-.5-1.1 0-1.4.3-.6.6zM33 63.9c0 3.6-.9 6.1-2.2 6.1-.5 0-1.6.7-2.4 1.5-2.6 2.5.1 1.7 3-1 1.9-1.7 2.6-3.4 2.6-6 0-1.9-.2-3.5-.5-3.5s-.5 1.3-.5 2.9zm90.7-.9c.3 1.1.7 2 .9 2 .2 0 .4-.9.4-2s-.4-2-.9-2-.7.9-.4 2zm-113.3.5c-.3.8-.4 2-.2 2.7.3.7.7.1 1-1.5.6-2.9.1-3.6-.8-1.2zm36.1-.5c-.4.6-1.1.7-1.7.4-.7-.5-.8-.2-.3.6.4.7.2 1.6-.6 2.1-1 .6-1 .9-.2.9.7 0 1.7-.9 2.3-2 1.3-2.5 5.5-2.6 6.9-.3.6 1 1.1 1.3 1.1.7.1-2.8-6-4.8-7.5-2.4zm51.7 1c0 1.4.2 1.9.5 1.2.2-.6.2-1.8 0-2.5-.3-.6-.5-.1-.5 1.3zm20.9-.2c-.1 1.2-.8 2.5-1.6 2.9-1.3.4-1.2.8.6 2 1.9 1.4 2.3 1.4 4.2-.8l2.2-2.3-2.2 1.8c-1.2 1-2.7 1.5-3.4 1-.9-.5-.8-1 .3-1.8 1-.7 1.2-1.8.7-3.1-.7-1.9-.8-1.9-.8.3z"/><path d="M55 64c0 .5.5 1 1.1 1 .5 0 .7-.5.4-1-.3-.6-.8-1-1.1-1-.2 0-.4.4-.4 1zm10.2 1c0 1.4.2 1.9.5 1.2.2-.6.2-1.8 0-2.5-.3-.6-.5-.1-.5 1.3zm38.8-1.2c0 1.5 4 6.2 5.3 6.2.6 0 .1-.7-1.1-1.6-1.2-.8-2-1.8-1.8-2.2.2-.4-.2-1.3-1-2s-1.4-.9-1.4-.4zm-76.3 1.6c-.3.8.2 2 1.1 2.7 1.4 1.1 1.5 1.1.5 0-.6-.7-.9-2-.6-2.7.3-.8.3-1.4 0-1.4s-.7.6-1 1.4zM40 65c0 .5.5 1 1.1 1 .5 0 .7-.5.4-1-.3-.6-.8-1-1.1-1-.2 0-.4.4-.4 1zm46.2 1c0 1.4.2 1.9.5 1.2.2-.6.2-1.8 0-2.5-.3-.6-.5-.1-.5 1.3zm23.4-1.2c-.3.5.1.9.9.9s1.2-.4.9-.9c-.3-.4-.7-.8-.9-.8-.2 0-.6.4-.9.8zM81 67.3c.1 2 .2 2 1.1.4.6-.9 1.6-1.4 2.2-1.1.7.4.8.3.4-.1-1.6-1.8-3.7-1.3-3.7.8zm-65.3.6c-.4 1.7-.3 2.1.5 1.3.5-.5.8-1.6.6-2.3-.3-.8-.7-.3-1.1 1zM59.2 69c0 1.4.4 3.6.8 5 .6 2 .8 2.1.8.5 0-1.1-.4-3.4-.8-5-.7-2.7-.8-2.7-.8-.5zm-35.1-.1c-.7.5-.9 1.1-.5 1.4.5.3 1.5-.1 2.2-.9 1.4-1.6.5-1.8-1.7-.5zm25.7-.2c.7.3 1.6.2 1.9-.1.4-.3-.2-.6-1.3-.5-1.1 0-1.4.3-.6.6zm16.4 1.9c-.1 1.3 0 2.4.2 2.4.7 0 1.4-4 .7-4.4-.4-.3-.8.6-.9 2zm5-.6c0 1.4.2 1.9.5 1.2.2-.6.2-1.8 0-2.5-.3-.6-.5-.1-.5 1.3zm23 0c0 1.4.2 1.9.5 1.2.2-.6.2-1.8 0-2.5-.3-.6-.5-.1-.5 1.3zm5 0c0 1.4.2 1.9.5 1.2.2-.6.2-1.8 0-2.5-.3-.6-.5-.1-.5 1.3zm-87.7.1c-.4.6-.5 1.2-.2 1.5.2.3.7-.2 1-1.1.7-1.7.1-2-.8-.4zm31.7.5c-1.2.8-2.2 2-2.2 2.6 0 .7.6.4 1.3-.5.6-.9 2.3-2.1 3.7-2.6 1.4-.5 1.8-1 1-1-.9-.1-2.6.6-3.8 1.5zm39.4 0c-1.4 3.6-.7 5.4 2.2 5.3 2.5-.2 2.5-.2.3-.6-2-.4-2.2-.9-1.7-3.4.6-3.1.2-3.9-.8-1.3zm4.6.9c0 1.6.2 2.2.5 1.2.2-.9.2-2.3 0-3-.3-.6-.5.1-.5 1.8zm26.4-1.3c.3.4 1.5.8 2.6.8 1.2 0 1.8-.3 1.4-.7-1-1-4.6-1.1-4-.1zm-96.5.1c.2.1 1.3.9 2.3 1.7 1.1.8 1.7 1 1.3.3-.4-.6-.1-1.4.5-1.6.7-.3 0-.6-1.6-.6-1.6-.1-2.7 0-2.5.2zm31.9.6c-.8.6-1.8.7-2.2.5-.5-.3-.7 0-.6.8.2.8-.4 1.2-1.6 1-1.5-.3-1.6-.1-.5 1.1 1.2 1.3 1.5 1.3 2.3 0 .4-.8 2.2-2.1 4-2.9 1.7-.7 2.4-1.3 1.6-1.3-.8-.1-2.2.3-3 .8zm5.1.7c0 1.1.3 1.4.6.6.3-.7.2-1.6-.1-1.9-.3-.4-.6.2-.5 1.3zM22 73.1c0 .5.9.9 2 .9s2-.2 2-.4-.9-.6-2-.9c-1.1-.3-2-.1-2 .4zm-9.4 1.5c-.8 2.1-.8 3.9.1 3 .8-.7 1.5-4.6.9-4.6-.2 0-.7.7-1 1.6zm56-.8c-.3.5.1.9.9.9s1.2-.4.9-.9c-.3-.4-.7-.8-.9-.8-.2 0-.6.4-.9.8zm27.2-.1c.7.3 1.6.2 1.9-.1.4-.3-.2-.6-1.3-.5-1.1 0-1.4.3-.6.6zm-80.2 1.6c.3 1 .9 1.5 1.2 1.2.3-.3 0-1.1-.7-1.8-1-.9-1.1-.8-.5.6zm41.8-.6c1.2 2.1-.5 3.9-1.9 2-1-1.4-1.2-1.4-2.3.4-1 1.5-1 1.9 0 1.9.8 0 .5.7-.6 1.5s-1.5 1.5-.9 1.5c1.6 0 3.4-2.5 2.5-3.6-.4-.5.4 0 1.7 1.1 1.4 1.1 2.1 1.4 1.7.7-.4-.7-.2-2 .5-2.8 1-1.2 1-1.7-.1-2.7-1-.9-1.1-.9-.6 0zm14.2.8c-.3.8-.1 1.5.4 1.5.6 0 1-.7 1-1.5s-.2-1.5-.4-1.5-.6.7-1 1.5zM67 76.9c0 1 1.9 2.5 2.5 2 .1-.2-.3-1-1.1-1.7s-1.4-.8-1.4-.3zm-21 1.2c0 .5.5.9 1 .9 1.5 0 .7 2.4-1 3.2-1 .4-.5.7 1.4.7 2.3.1 2.6-.1 1.7-1.3-1-1.1-.9-1.5.3-1.8 1.1-.2.9-.6-.9-1.5-1.4-.6-2.5-.7-2.5-.2zM15.4 80c0 1.3.4 1.6 1 1 .7-.7.7-1.3 0-2-.6-.6-1-.3-1 1zm2.8 0c0 1.4.2 1.9.5 1.2.2-.6.2-1.8 0-2.5-.3-.6-.5-.1-.5 1.3zm41.6-.3c.7.3 1.6.2 1.9-.1.4-.3-.2-.6-1.3-.5-1.1 0-1.4.3-.6.6zM13.2 82c0 1.4.2 1.9.5 1.2.2-.6.2-1.8 0-2.5-.3-.6-.5-.1-.5 1.3zm3.4 2.3c.3 1 .9 1.5 1.2 1.2.3-.3 0-1.1-.7-1.8-1-.9-1.1-.8-.5.6zm2.5 1.3c0 1.1.3 1.4.6.6.3-.7.2-1.6-.1-1.9-.3-.4-.6.2-.5 1.3zm-4.3 2.1c.6.2 1.8.2 2.5 0 .6-.3.1-.5-1.3-.5-1.4 0-1.9.2-1.2.5z"/></g><g fill="#900" stroke-width="0"><path d="M88.7 3.4c-.8 2.1.3 7.7 1.3 7.1.5-.3.6.4.3 1.4-.4 1.6-.1 1.9 1.7 1.4 1.3-.4 1.9-1.1 1.6-2-.3-.8-.6-2.4-.6-3.5 0-1.5-.5-1.9-1.7-1.4-1.7.6-1.7.5 0-.8C93.2 4.2 93.6 2 92 2c-.5 0-1 .6-1 1.2 0 1-.2 1-.9 0-.7-1.1-.9-1.1-1.4.2zm16.1 1c-1 .7-1.8 1.9-1.8 2.6 0 .7.3 1 .7.7.3-.4 1.2-.2 1.9.4 1.1.9 1.3.4 1.1-2-.1-1.7-.2-3.1-.2-3.1 0 .1-.8.7-1.7 1.4z"/><path d="M101.3 9.9c-4.2 2.1-4.2 3.4 0 2.8l3.2-.4.1 5.9c.1 4.4.6 6.3 2 7.4 1.1.9 1.3 1.2.6.9-1.1-.6-1.2-.3-.2 1.5.8 1.6 1.8 2 3.3 1.6 1.2-.3 3-.6 4-.6.9 0 1.7-.7 1.7-1.5 0-1.1-.5-1.2-2.5-.5-1.8.7-2.4.6-2.2-.3.1-.7-.3-1.1-.8-1-.6.1-1.1-.6-1.2-1.5-.1-.9-.4-4.3-.8-7.5-.7-5.6-.7-5.7 1.9-5.7 2.5 0 3.3-1 2-2.2-.3-.4-1.8-.3-3.4.2-1.5.4-3.2.4-3.6 0-.5-.4-2.4 0-4.1.9zm-27 4.8c-1.8.7-1.6 2.3.2 2.3.8 0 1.5-.6 1.6-1.3 0-.6.4-.2.9 1 .5 1.3 1.4 2.4 2 2.4.5.1 1.4.2 1.9.3.5 0 1.3.4 1.7.8.3.4-.3.6-1.4.3-1.3-.2-1.9.1-1.7.8.2.7.7 3 1 5.2.3 2.2 1 4.1 1.5 4.3.5.2.7.9.4 1.5-.2.7.4 1.3 1.6 1.4 2.5.2 2.6-2.5.5-11.2-1.8-7.5-5-10-10.2-7.8zm8.4 9.8c0 .8-.4 1.2-.9.9-.5-.3-.6-1-.3-1.5.9-1.3 1.2-1.1 1.2.6zM7.3 17c-2.4.3-4.4.8-4.7 1.1C2.1 18.6 6 42.4 7 45c.1.3.2.9.1 1.4-.3 1.3 12.7-.7 13.8-2.1.3-.5 1.5-1 2.6-1.1 2.7-.5 6.7-4.3 6.1-5.9-.3-.7 0-1.3.6-1.3 1.8 0 .5-12-1.5-13.5-.9-.7-1.4-1.5-1.1-1.8.4-.3-.8-1.5-2.6-2.5-3.3-2.1-9.7-2.5-17.7-1.2zm-.5 3.5c-.3.3-.9-.2-1.2-1.2-.6-1.4-.5-1.5.5-.6.7.7 1 1.5.7 1.8zm11.9-1.8c-1 1 5.3 3.4 6.7 2.6.6-.4.5.1-.3 1.1-1.1 1.3-1.1 2-.3 2.8.7.7 1.2 3.5 1.2 6.3 0 3.9-.5 5.6-2 7-1.1 1-1.7 2.2-1.3 2.8.3.6.1.7-.6.3-.6-.4-2.4-.1-3.9.6-4.9 2.4-6.9 1.3-7.7-4.3-.6-4.4-1.4-5.4-3.8-5-.5.1-.6-.3-.2-.9.3-.6 1.1-.8 1.6-.4.7.4.8-1.5.3-5.4l-.6-6.1 3.8-.6c3.6-.6 6.3-1.1 7.3-1.4.2 0 .1.2-.2.6zM6.5 25.9c.3.5.2 1.2-.3 1.5-.5.3-.9-.1-.9-.9 0-1.7.3-1.9 1.2-.6zm22.6 6.4c-.6.8-.7 1.8-.3 2.2.4.5.2.5-.5.1-1.4-.8-.6-3.6.9-3.6.7 0 .6.5-.1 1.3zm36.3-15.6c-1.9.4-2 .8-1.3 5.1.5 2.6 1.1 6.7 1.5 9.2.7 5.2 1.6 6.5 3.9 5.6 1.5-.5 1.6-1.4.9-5.4-.4-2.6-.7-6.1-.7-7.9 0-2.4-.4-3-1.6-2.6-.9.2-.4-.3 1.2-1.2 1.5-.8 2.7-2.1 2.7-2.8 0-.8-.3-.9-.8-.1-.4.6-1.5 1.3-2.4 1.7-1.2.4-1.5.2-1.1-.9.3-.7.4-1.3.2-1.3-.2.1-1.3.4-2.5.6zM69.5 32c-.3.5-1.2 1-1.8 1-.7 0-.6-.4.3-1 1.9-1.2 2.3-1.2 1.5 0zM43.4 20.4c-4.5 2-5.6 4.1-5.7 10.8-.2 6.7 5.7 10.7 13.3 9 2.9-.7 3.5-1.2 3.2-3.3-.1-1.7 0-2 .7-1 1.1 1.7 3.4.4 2.7-1.4-.3-.8 0-1.5.6-1.7.7-.3.8-1.7.4-4.1-.4-2.1-1.1-3.5-1.6-3.2-.6.3-.7 0-.5-.8.8-1.8-3-5.1-5-4.3-.9.3-1.3.2-1-.4.9-1.4-3.5-1.2-7.1.4zm7.9 3.5c3.4 3.7 3.7 13.1.5 13.1-.5 0-.6.4-.3 1 .3.5 0 .8-.7.6-.7-.3-2.5-.7-3.9-1-1.4-.3-3.1-1.7-3.7-3.1-1.5-3.3-1.6-10.5-.1-10.5.6 0 .9-.6.6-1.3-.7-1.9 5.8-.9 7.6 1.2zm-11.4 6.5c.9 1.1.9 1.6-.1 2.2-.7.4-1 .4-.6-.1.4-.4.3-1.4-.3-2.2-.6-.7-.9-1.3-.6-1.3.2 0 1 .6 1.6 1.4zM43 36c0 .5-.5 1-1.1 1-.5 0-.7-.5-.4-1 .3-.6.8-1 1.1-1 .2 0 .4.4.4 1zm96.6 1.2c.5 2.5 3.4 18.1 3.4 18.5 0 .2.7.3 1.5.3 2 0 1.9-3.9-.2-6.9-.9-1.4-1.1-2.1-.5-1.7.7.4 1-.4.8-2.6-.7-7-1.7-9.8-3.6-9.8-1.4 0-1.8.5-1.4 2.2zm-49.2 6.9c-.9 1.5 1.2 3.3 3 2.6.9-.4 1.6-1.3 1.6-2.2 0-1.7-3.5-2.1-4.6-.4zm19.9 5.6c-.7.2-1.3 1.1-1.3 1.8 0 .8-.4 1.7-1 2-.6.4-.7-.1-.3-1.2.5-1.7.5-1.7-1.2-.2-2.4 2.4-3.2 10.1-1.2 12.1.9.9 1.4 1.8 1 2.1-.3.3 1 1.5 2.8 2.6 3.6 2.2 5.4 2.7 4.5 1.2-.3-.4.7-.7 2.3-.5 1.8.2 3.9-.4 5.5-1.7 3.2-2.5 3.5-5.9.5-5.9-1.6 0-2 .5-1.7 1.8 1 3.5-7.3 6-8.6 2.6-.3-.8-.9-1.3-1.3-1.1-.5.3-.9-1.1-1.1-3.1-.1-1.9-.7-4.1-1.4-4.9-.6-.7-.8-1.6-.4-2 .3-.3.6 0 .7.8.1.8.4.3.8-1 .4-1.6 1.9-2.8 4.4-3.7 2.1-.7 3.6-1 3.3-.6-.2.4.2 1.5.9 2.5.8 1.1 1.6 1.4 1.9.8.4-.6 1.3-.8 2.1-.4 2.2.8.8-2.5-1.6-3.7-1.8-1-7.5-1.2-9.6-.3zm-2.3 9.9c0 .8-1.9 1.3-2.4.6-.3-.5.1-.9.9-.9s1.5.2 1.5.3zm-16-5.9c0 .5.7 5 1.7 10 1.5 8.3 1.9 9.3 3.8 9.3 2.1 0 2.2-.2 1.2-5.8-.5-3.1-1.4-6.3-2.1-7.1-.8-1.1-.8-1.3 0-.8.7.4 1-.2.6-1.8-.2-1.4-.9-2.5-1.4-2.5-.5 0-.6-.5-.3-1 .3-.6-.3-1-1.4-1-1.2 0-2.1.3-2.1.7zm4.5 9.1c-.3.3-1.1 0-1.8-.7-.9-1-.8-1.1.6-.5 1 .3 1.5.9 1.2 1.2zM76 55.7c-.8.3-2.5 1.5-3.7 2.6-1.9 1.7-2.3 1.8-2.8.5-.4-1-1.4-1.4-2.7-1-1.8.4-1.9 1-1.3 5.1.4 2.5 1.2 5.2 1.8 6 .9 1.1.9 1.3 0 .8-.7-.5-1-.1-.8 1C68 77.9 68 78 70.8 78c1.5 0 2.3-.4 1.7-.8-.5-.4-1.2-4.4-1.4-8.9-.3-7.4-.1-8.2 1.8-9.2 1.1-.6 3.3-1 4.9-.9 2.3.2 2.8.6 2.4 2.2-.3 1.1-.1 1.7.5 1.3.5-.3.9.4.9 1.6-.1 1.2.4 2.2 1.1 2.2.6 0 1.5.4 2 .9.4.5.3.6-.4.2-1.8-1-2.5 1-1.7 4.9.5 2.7 1.1 3.5 2.8 3.5 2.2 0 2.2-.1 1.1-7.3-1.8-11.3-4.4-14.2-10.5-12zM68.5 63c0 1.6-.2 2.7-.5 2.4-.3-.3-.5-1.9-.6-3.5 0-1.6.2-2.6.5-2.3.3.3.6 1.8.6 3.4zm1.9 10.8c.3.5-.1.9-.9.9s-1.2-.4-.9-.9c.3-.4.7-.8.9-.8.2 0 .6.4.9.8zM13.8 57.2c-3.1.8-3.8 1.5-3.8 3.5 0 1.3.3 2.2.8 2 .4-.3.7 1.9.8 4.7 0 2.9.4 6.1.9 7.2.9 2.2 1.1 3.4 1.3 8.6.2 3.3.5 3.8 2.7 3.8 2.5 0 2.6 0 1.9-6.5-.6-6.2-.6-6.5 1.5-6.5 1.1 0 2.1-.4 2.1-.9 0-.4 1.1-.6 2.3-.4 1.4.3 3.1-.2 4-1.1.8-.9 2-1.6 2.5-1.6 1.4 0 2.2-2.6 2.2-7 0-5.2-2.6-7-10-6.9-3 .1-7.2.6-9.2 1.1zm13 1.5c-.1.5.4 2.1 1.1 3.7.9 2.2.9 3.2-.1 4.5-2.2 2.7-3.2 3.6-4.5 3.7-3 .2-3.4.5-2.8 1.5.4.6-.2.5-1.4-.3-1.2-.7-2.1-1.6-2.1-2.1 0-.4-.3-.6-.7-.4-.5.3-.9-1.7-1-4.3l-.3-4.9 4.8-.6c2.6-.4 5.2-.8 5.7-1 .6-.2 1.1-.4 1.3-.4.1-.1.1.2 0 .6zm-10 17.8c-.3.3-.9-.2-1.2-1.2-.6-1.4-.5-1.5.5-.6.7.7 1 1.5.7 1.8zm-.4 4.5c-.6.6-1 .3-1-1s.4-1.6 1-1c.7.7.7 1.3 0 2zm1.4 4.5c-.3.3-.9-.2-1.2-1.2-.6-1.4-.5-1.5.5-.6.7.7 1 1.5.7 1.8zm29.7-24.8c-3.7.8-6.6 2.7-6.1 4 .3.7 0 1.3-.6 1.3s-.9.3-.5.6c1.1 1.2 4.9-.8 4.3-2.2-.3-.8-.2-1.2.3-.9.5.3 1.2.1 1.6-.5.9-1.4 4.8-1.3 6.3.2 2.7 2.7 1.3 4.6-4.3 6.3C43 71.1 41 73 41 76.9c0 1.1.7 2.7 1.6 3.6 2.1 2 8.9 1.5 11.2-.9 1.6-1.6 1.5-1.6-1.2-.6-3.3 1.2-6.6.5-6.6-1.5 0-.7-.7-2.1-1.6-3-1.6-1.5-1.6-1.6.2-1.3 1 .2 1.8-.2 1.7-.8-.1-.6.3-1.1 1-1.2.7-.1 2.6-.4 4.4-.8 3.1-.6 3.2-.5 3.5 3.2.2 2.2.7 3.7 1.3 3.4.6-.3.9-1.1.8-1.9-.1-.9.2-1 1-.2s.8 1.4-.1 2.3c-2.2 2.2-1.1 3.7 1.5 2 1-.6.9-2.4-.3-8.3-.8-4-2-7.9-2.7-8.5-1.4-1.4-6.4-2.4-9.2-1.7zm9 3.3c.3.5.1 1-.4 1-.6 0-1.1-.5-1.1-1 0-.6.2-1 .4-1 .3 0 .8.4 1.1 1zm89.3-3.3c-1 .2-1.8 1.3-1.8 2.3 0 2.7 3.5 1.9 3.6-.8.1-1.2.1-2.1 0-2.1 0 .1-.9.3-1.8.6z"/></g></svg>